<svg width="400" height="400" viewBox="0 0 400 400" version="1.1" xmlns="http://www.w3.org/2000/svg">
        <defs><!-- 定义 -->
        <clipPath id="clipPath"><!-- 定义剪裁路径 -->
            <polygon points="0,0 200,0 200,90 100,90 100,110 200,110 200,200 0,200"></polygon>
        </clipPath>
        <circle id="cc" cx="100" cy="100" r="66" stroke="#09c" fill="transparent" stroke-width="68" clip-path="url(#clipPath)"></circle>

        
    <clipPath id="cp-0-0"><rect width="200" height="12" x="0" y="0"></rect></clipPath><clipPath id="cp-1-0"><rect width="48" height="36" x="0" y="0"></rect></clipPath><clipPath id="cp-1-1"><rect width="200" height="36" x="0" y="0"></rect></clipPath><clipPath id="cp-1-2"><rect width="152" height="36" x="152" y="0"></rect></clipPath><clipPath id="cp-2-0"><rect width="36" height="48" x="0" y="0"></rect></clipPath><clipPath id="cp-2-1"><rect width="48" height="48" x="0" y="0"></rect></clipPath><clipPath id="cp-2-2"><rect width="200" height="48" x="0" y="0"></rect></clipPath><clipPath id="cp-2-3"><rect width="152" height="48" x="152" y="0"></rect></clipPath><clipPath id="cp-2-4"><rect width="164" height="48" x="164" y="0"></rect></clipPath><clipPath id="cp-3-0"><rect width="12" height="200" x="0" y="0"></rect></clipPath><clipPath id="cp-3-1"><rect width="36" height="200" x="0" y="0"></rect></clipPath><clipPath id="cp-3-2"><rect width="48" height="200" x="0" y="0"></rect></clipPath><clipPath id="cp-3-3"><rect width="200" height="200" x="0" y="0"></rect></clipPath><clipPath id="cp-3-4"><rect width="152" height="200" x="152" y="0"></rect></clipPath><clipPath id="cp-3-5"><rect width="164" height="200" x="164" y="0"></rect></clipPath><clipPath id="cp-3-6"><rect width="188" height="200" x="188" y="0"></rect></clipPath><clipPath id="cp-4-0"><rect width="36" height="152" x="0" y="152"></rect></clipPath><clipPath id="cp-4-1"><rect width="48" height="152" x="0" y="152"></rect></clipPath><clipPath id="cp-4-2"><rect width="200" height="152" x="0" y="152"></rect></clipPath><clipPath id="cp-4-3"><rect width="152" height="152" x="152" y="152"></rect></clipPath><clipPath id="cp-4-4"><rect width="164" height="152" x="164" y="152"></rect></clipPath><clipPath id="cp-5-0"><rect width="48" height="164" x="0" y="164"></rect></clipPath><clipPath id="cp-5-1"><rect width="200" height="164" x="0" y="164"></rect></clipPath><clipPath id="cp-5-2"><rect width="152" height="164" x="152" y="164"></rect></clipPath><clipPath id="cp-6-0"><rect width="200" height="188" x="0" y="188"></rect></clipPath></defs>
    
    
    <use href="#cc" y="4" x="100" clip-path="url(#cp-0-0)" opacity="0.5714285714285714"></use><use href="#cc" y="16" x="52" clip-path="url(#cp-1-0)" opacity="0.7142857142857143"></use><use href="#cc" y="16" x="100" clip-path="url(#cp-1-1)" opacity="0.7142857142857143"></use><use href="#cc" y="16" x="148" clip-path="url(#cp-1-2)" opacity="0.7142857142857143"></use><use href="#cc" y="52" x="16" clip-path="url(#cp-2-0)" opacity="0.7142857142857143"></use><use href="#cc" y="52" x="52" clip-path="url(#cp-2-1)" opacity="0.8571428571428572"></use><use href="#cc" y="52" x="100" clip-path="url(#cp-2-2)" opacity="0.8571428571428572"></use><use href="#cc" y="52" x="148" clip-path="url(#cp-2-3)" opacity="0.8571428571428572"></use><use href="#cc" y="52" x="184" clip-path="url(#cp-2-4)" opacity="0.7142857142857143"></use><use href="#cc" y="100" x="4" clip-path="url(#cp-3-0)" opacity="0.5714285714285714"></use><use href="#cc" y="100" x="16" clip-path="url(#cp-3-1)" opacity="0.7142857142857143"></use><use href="#cc" y="100" x="52" clip-path="url(#cp-3-2)" opacity="0.8571428571428572"></use><use href="#cc" y="100" x="100" clip-path="url(#cp-3-3)" opacity="1"></use><use href="#cc" y="100" x="148" clip-path="url(#cp-3-4)" opacity="0.8571428571428572"></use><use href="#cc" y="100" x="184" clip-path="url(#cp-3-5)" opacity="0.7142857142857143"></use><use href="#cc" y="100" x="196" clip-path="url(#cp-3-6)" opacity="0.5714285714285714"></use><use href="#cc" y="148" x="16" clip-path="url(#cp-4-0)" opacity="0.7142857142857143"></use><use href="#cc" y="148" x="52" clip-path="url(#cp-4-1)" opacity="0.8571428571428572"></use><use href="#cc" y="148" x="100" clip-path="url(#cp-4-2)" opacity="0.8571428571428572"></use><use href="#cc" y="148" x="148" clip-path="url(#cp-4-3)" opacity="0.8571428571428572"></use><use href="#cc" y="148" x="184" clip-path="url(#cp-4-4)" opacity="0.7142857142857143"></use><use href="#cc" y="184" x="52" clip-path="url(#cp-5-0)" opacity="0.7142857142857143"></use><use href="#cc" y="184" x="100" clip-path="url(#cp-5-1)" opacity="0.7142857142857143"></use><use href="#cc" y="184" x="148" clip-path="url(#cp-5-2)" opacity="0.7142857142857143"></use><use href="#cc" y="196" x="100" clip-path="url(#cp-6-0)" opacity="0.5714285714285714"></use></svg>